<?xml version="1.0" encoding="UTF-8" standalone="no" ?>
<!DOCTYPE svg PUBLIC "-//W3C//DTD SVG 1.1//EN" "http://www.w3.org/Graphics/SVG/1.1/DTD/svg11.dtd">
<svg xmlns="http://www.w3.org/2000/svg" xmlns:xlink="http://www.w3.org/1999/xlink" version="1.1" width="1080" height="1080" viewBox="0 0 1080 1080" xml:space="preserve">
<desc>Created with Fabric.js 5.2.4</desc>
<defs>
</defs>
<g transform="matrix(1 0 0 1 540 540)" id="d94e1270-ed32-49d5-bc7e-a7099d7166e3"  >
<rect style="stroke: none; stroke-width: 1; stroke-dasharray: none; stroke-linecap: butt; stroke-dashoffset: 0; stroke-linejoin: miter; stroke-miterlimit: 4; fill: rgb(255,255,255); fill-rule: nonzero; opacity: 1; visibility: hidden;" vector-effect="non-scaling-stroke"  x="-540" y="-540" rx="0" ry="0" width="1080" height="1080" />
</g>
<g transform="matrix(1 0 0 1 540 540)" id="3469ab94-8656-4d06-b82c-c1095047fac7"  >
</g>
<g transform="matrix(1 0 0 1 540 540)" id="7"  >
<rect style="stroke: none; stroke-width: 1; stroke-dasharray: none; stroke-linecap: butt; stroke-dashoffset: 0; stroke-linejoin: miter; stroke-miterlimit: 4; fill: rgb(255,255,255); fill-rule: nonzero; opacity: 1; visibility: hidden;" vector-effect="non-scaling-stroke"  x="-540" y="-540" rx="0" ry="0" width="1080" height="1080" />
</g>
<g transform="matrix(2.08 0 0 2.08 540.62 523.82)"  >
<rect style="stroke: none; stroke-width: 1; stroke-dasharray: none; stroke-linecap: butt; stroke-dashoffset: 0; stroke-linejoin: miter; stroke-miterlimit: 4; fill: rgb(255,255,255); fill-rule: nonzero; opacity: 1;" vector-effect="non-scaling-stroke"  x="-200" y="-140" rx="12" ry="12" width="400" height="280" />
</g>
<g transform="matrix(2.08 0 0 2.08 502.82 498.5)"  >
<rect style="stroke: none; stroke-width: 1; stroke-dasharray: none; stroke-linecap: butt; stroke-dashoffset: 0; stroke-linejoin: miter; stroke-miterlimit: 4; fill: rgb(43,54,100); fill-rule: nonzero; opacity: 1;" vector-effect="non-scaling-stroke"  x="-68" y="-12" rx="6" ry="6" width="136" height="24" />
</g>
<g transform="matrix(2.08 0 0 2.08 400.03 498.62)"  >
<path style="stroke: none; stroke-width: 1; stroke-dasharray: none; stroke-linecap: butt; stroke-dashoffset: 0; stroke-linejoin: miter; stroke-miterlimit: 4; fill: rgb(255,255,255); fill-rule: nonzero; opacity: 1;" vector-effect="non-scaling-stroke"  transform=" translate(-192.59, -180.07)" d="M 185.06 182.524 L 186.908 180.4 C 187.412 179.836 187.772 179.164 187.772 178.408 C 187.772 176.98 186.752 176.032 185.18 176.032 C 183.608 176.032 182.696 176.992 182.504 178.396 L 183.932 178.636 C 184.028 177.952 184.424 177.496 185.12 177.496 C 185.732 177.496 186.164 177.868 186.164 178.396 C 186.164 178.66 185.948 179.068 185.624 179.464 L 182.552 183.148 L 182.552 184 L 187.844 184 L 187.844 182.524 L 185.06 182.524 Z M 193.623 179.764 C 194.259 179.44 194.655 178.864 194.655 178.204 C 194.679 176.872 193.599 176.032 192.219 176.032 C 191.211 176.032 190.395 176.488 189.843 177.136 L 190.707 178.12 C 191.007 177.736 191.547 177.484 192.039 177.484 C 192.615 177.484 193.023 177.784 193.047 178.264 C 193.083 178.816 192.591 179.272 191.739 179.272 L 191.295 179.272 L 191.295 180.484 L 192.051 180.484 C 192.855 180.484 193.407 180.94 193.407 181.6 C 193.407 182.236 192.867 182.668 192.039 182.668 C 191.463 182.668 191.007 182.38 190.635 181.876 L 189.531 182.728 C 190.095 183.628 190.995 184.108 192.111 184.108 C 193.815 184.108 195.015 183.136 195.015 181.72 C 195.015 180.796 194.475 180.076 193.623 179.764 Z M 200.1 178.672 C 199.548 178.672 199.032 178.84 198.672 179.104 L 198.972 177.592 L 202.14 177.592 L 202.14 176.128 L 197.676 176.128 L 196.98 180.088 L 197.916 180.676 C 198.396 180.256 199.032 179.968 199.644 179.968 C 200.484 179.968 201.084 180.52 201.084 181.288 C 201.084 182.092 200.46 182.644 199.56 182.644 C 198.948 182.644 198.264 182.236 198 181.684 L 196.776 182.5 C 197.28 183.448 198.468 184.108 199.632 184.108 C 201.264 184.108 202.68 183.052 202.68 181.3 C 202.68 179.788 201.624 178.672 200.1 178.672 Z" stroke-linecap="round" />
</g>
<g transform="matrix(1.47 -1.47 1.47 1.47 406.38 523.38)"  >
<rect style="stroke: none; stroke-width: 1; stroke-dasharray: none; stroke-linecap: butt; stroke-dashoffset: 0; stroke-linejoin: miter; stroke-miterlimit: 4; fill: rgb(43,54,100); fill-rule: nonzero; opacity: 1;" vector-effect="non-scaling-stroke"  x="-4" y="-4" rx="0" ry="0" width="8" height="8" />
</g>
<g transform="matrix(2.08 0 0 2.08 280.04 728.82)"  >
<path style="stroke: none; stroke-width: 1; stroke-dasharray: none; stroke-linecap: butt; stroke-dashoffset: 0; stroke-linejoin: miter; stroke-miterlimit: 4; fill: rgb(107,121,179); fill-rule: nonzero; opacity: 1;" vector-effect="non-scaling-stroke"  transform=" translate(-134.83, -290.91)" d="M 131.289 294 L 130.524 287.799 L 129.786 287.799 L 127.581 292.398 L 125.367 287.799 L 124.629 287.799 L 123.873 294 L 124.674 294 L 125.241 289.275 L 127.23 293.325 L 127.941 293.325 L 129.912 289.275 L 130.488 294 L 131.289 294 Z M 136.103 294.09 C 137.876 294.09 139.253 292.668 139.253 290.913 C 139.253 289.149 137.876 287.727 136.103 287.727 C 134.339 287.727 132.971 289.149 132.971 290.913 C 132.971 292.668 134.339 294.09 136.103 294.09 Z M 136.103 293.334 C 134.798 293.334 133.79 292.236 133.79 290.913 C 133.79 289.581 134.798 288.483 136.103 288.483 C 137.426 288.483 138.434 289.581 138.434 290.913 C 138.434 292.236 137.426 293.334 136.103 293.334 Z M 144.961 287.799 L 144.961 292.506 L 142.117 287.799 L 141.307 287.799 L 141.307 294 L 142.126 294 L 142.126 289.275 L 144.988 294 L 145.78 294 L 145.78 287.799 L 144.961 287.799 Z" stroke-linecap="round" />
</g>
<g transform="matrix(2.08 0 0 2.08 409.46 728.82)"  >
<path style="stroke: none; stroke-width: 1; stroke-dasharray: none; stroke-linecap: butt; stroke-dashoffset: 0; stroke-linejoin: miter; stroke-miterlimit: 4; fill: rgb(107,121,179); fill-rule: nonzero; opacity: 1;" vector-effect="non-scaling-stroke"  transform=" translate(-197.13, -290.91)" d="M 190.274 287.799 L 185.675 287.799 L 185.675 288.555 L 187.565 288.555 L 187.565 294 L 188.384 294 L 188.384 288.555 L 190.274 288.555 L 190.274 287.799 Z M 194.253 294.09 C 195.477 294.09 196.512 293.28 196.512 291.876 L 196.512 287.799 L 195.693 287.799 L 195.693 291.876 C 195.693 292.848 195.027 293.307 194.253 293.307 C 193.479 293.307 192.813 292.848 192.813 291.876 L 192.813 287.799 L 191.994 287.799 L 191.994 291.876 C 191.994 293.28 193.029 294.09 194.253 294.09 Z M 199.725 293.244 L 199.725 291.336 L 202.209 291.336 L 202.209 290.571 L 199.725 290.571 L 199.725 288.555 L 202.569 288.555 L 202.569 287.799 L 198.915 287.799 L 198.915 294 L 202.659 294 L 202.659 293.244 L 199.725 293.244 Z M 206.519 294.09 C 207.806 294.09 208.589 293.217 208.589 292.254 C 208.589 291.372 207.959 290.796 206.906 290.535 L 206.096 290.337 C 205.268 290.139 205.196 289.689 205.196 289.473 C 205.196 288.861 205.772 288.483 206.393 288.483 C 207.059 288.483 207.572 288.906 207.572 289.527 L 208.382 289.527 C 208.382 288.42 207.509 287.727 206.42 287.727 C 205.34 287.727 204.377 288.411 204.377 289.482 C 204.377 289.986 204.584 290.76 205.898 291.075 L 206.699 291.273 C 207.221 291.408 207.77 291.678 207.77 292.281 C 207.77 292.83 207.329 293.334 206.519 293.334 C 205.691 293.334 205.169 292.776 205.142 292.227 L 204.332 292.227 C 204.341 293.19 205.214 294.09 206.519 294.09 Z" stroke-linecap="round" />
</g>
<g transform="matrix(2.08 0 0 2.08 538.66 728.8)"  >
<path style="stroke: none; stroke-width: 1; stroke-dasharray: none; stroke-linecap: butt; stroke-dashoffset: 0; stroke-linejoin: miter; stroke-miterlimit: 4; fill: rgb(107,121,179); fill-rule: nonzero; opacity: 1;" vector-effect="non-scaling-stroke"  transform=" translate(-259.34, -290.9)" d="M 255.994 287.799 L 254.419 292.686 L 253.258 288.645 L 252.637 288.645 L 251.485 292.704 L 249.901 287.799 L 249.028 287.799 L 251.125 294 L 251.836 294 L 252.943 290.085 L 254.059 294 L 254.77 294 L 256.867 287.799 L 255.994 287.799 Z M 259.438 293.244 L 259.438 291.336 L 261.922 291.336 L 261.922 290.571 L 259.438 290.571 L 259.438 288.555 L 262.282 288.555 L 262.282 287.799 L 258.628 287.799 L 258.628 294 L 262.372 294 L 262.372 293.244 L 259.438 293.244 Z M 264.449 294 L 266.852 294 C 268.616 294 269.651 292.668 269.651 290.913 C 269.651 289.149 268.616 287.799 266.852 287.799 L 264.449 287.799 L 264.449 294 Z M 265.268 293.244 L 265.268 288.555 L 266.852 288.555 C 268.157 288.555 268.832 289.59 268.832 290.913 C 268.832 292.236 268.157 293.244 266.852 293.244 L 265.268 293.244 Z" stroke-linecap="round" />
</g>
<g transform="matrix(2.08 0 0 2.08 668.05 728.82)"  >
<path style="stroke: none; stroke-width: 1; stroke-dasharray: none; stroke-linecap: butt; stroke-dashoffset: 0; stroke-linejoin: miter; stroke-miterlimit: 4; fill: rgb(107,121,179); fill-rule: nonzero; opacity: 1;" vector-effect="non-scaling-stroke"  transform=" translate(-321.63, -290.91)" d="M 310.953 287.799 L 306.354 287.799 L 306.354 288.555 L 308.244 288.555 L 308.244 294 L 309.063 294 L 309.063 288.555 L 310.953 288.555 L 310.953 287.799 Z M 316.606 287.799 L 316.606 290.544 L 313.564 290.544 L 313.564 287.799 L 312.745 287.799 L 312.745 294 L 313.564 294 L 313.564 291.291 L 316.606 291.291 L 316.606 294 L 317.425 294 L 317.425 287.799 L 316.606 287.799 Z M 322.081 294.09 C 323.305 294.09 324.34 293.28 324.34 291.876 L 324.34 287.799 L 323.521 287.799 L 323.521 291.876 C 323.521 292.848 322.855 293.307 322.081 293.307 C 321.307 293.307 320.641 292.848 320.641 291.876 L 320.641 287.799 L 319.822 287.799 L 319.822 291.876 C 319.822 293.28 320.857 294.09 322.081 294.09 Z M 329.992 294 L 330.973 294 L 329.326 291.651 C 330.496 291.534 330.946 290.634 330.946 289.734 C 330.946 288.771 330.424 287.799 329.074 287.799 L 326.743 287.799 L 326.743 294 L 327.562 294 L 327.562 291.66 L 328.372 291.66 L 329.992 294 Z M 327.562 288.555 L 329.092 288.555 C 329.722 288.555 330.127 289.041 330.127 289.734 C 330.127 290.436 329.767 290.913 328.858 290.913 L 327.562 290.913 L 327.562 288.555 Z M 334.839 294.09 C 336.126 294.09 336.909 293.217 336.909 292.254 C 336.909 291.372 336.279 290.796 335.226 290.535 L 334.416 290.337 C 333.588 290.139 333.516 289.689 333.516 289.473 C 333.516 288.861 334.092 288.483 334.713 288.483 C 335.379 288.483 335.892 288.906 335.892 289.527 L 336.702 289.527 C 336.702 288.42 335.829 287.727 334.74 287.727 C 333.66 287.727 332.697 288.411 332.697 289.482 C 332.697 289.986 332.904 290.76 334.218 291.075 L 335.019 291.273 C 335.541 291.408 336.09 291.678 336.09 292.281 C 336.09 292.83 335.649 293.334 334.839 293.334 C 334.011 293.334 333.489 292.776 333.462 292.227 L 332.652 292.227 C 332.661 293.19 333.534 294.09 334.839 294.09 Z" stroke-linecap="round" />
</g>
<g transform="matrix(2.08 0 0 2.08 797.57 728.8)"  >
<path style="stroke: none; stroke-width: 1; stroke-dasharray: none; stroke-linecap: butt; stroke-dashoffset: 0; stroke-linejoin: miter; stroke-miterlimit: 4; fill: rgb(107,121,179); fill-rule: nonzero; opacity: 1;" vector-effect="non-scaling-stroke"  transform=" translate(-384, -290.9)" d="M 381.298 288.555 L 381.298 287.799 L 377.689 287.799 L 377.689 294 L 378.508 294 L 378.508 291.336 L 380.722 291.336 L 380.722 290.571 L 378.508 290.571 L 378.508 288.555 L 381.298 288.555 Z M 386.434 294 L 387.415 294 L 385.768 291.651 C 386.938 291.534 387.388 290.634 387.388 289.734 C 387.388 288.771 386.866 287.799 385.516 287.799 L 383.185 287.799 L 383.185 294 L 384.004 294 L 384.004 291.66 L 384.814 291.66 L 386.434 294 Z M 384.004 288.555 L 385.534 288.555 C 386.164 288.555 386.569 289.041 386.569 289.734 C 386.569 290.436 386.209 290.913 385.3 290.913 L 384.004 290.913 L 384.004 288.555 Z M 389.499 294 L 390.318 294 L 390.318 287.799 L 389.499 287.799 L 389.499 294 Z" stroke-linecap="round" />
</g>
<g transform="matrix(-2.08 0 0 -2.08 315.36 651.41)"  >
<rect style="stroke: none; stroke-width: 1; stroke-dasharray: none; stroke-linecap: butt; stroke-dashoffset: 0; stroke-linejoin: miter; stroke-miterlimit: 4; fill: rgb(24,90,220); fill-rule: nonzero; opacity: 1;" vector-effect="non-scaling-stroke"  x="-4" y="-20" rx="4" ry="4" width="8" height="40" />
</g>
<g transform="matrix(-2.08 0 0 -2.08 290.44 572.37)"  >
<rect style="stroke: none; stroke-width: 1; stroke-dasharray: none; stroke-linecap: butt; stroke-dashoffset: 0; stroke-linejoin: miter; stroke-miterlimit: 4; fill: rgb(255,0,0); fill-rule: nonzero; opacity: 1;" vector-effect="non-scaling-stroke"  x="-4" y="-58" rx="4" ry="4" width="8" height="116" />
</g>
<g transform="matrix(-2.08 0 0 -2.08 265.52 634.77)"  >
<rect style="stroke: none; stroke-width: 1; stroke-dasharray: none; stroke-linecap: butt; stroke-dashoffset: 0; stroke-linejoin: miter; stroke-miterlimit: 4; fill: rgb(121,76,198); fill-rule: nonzero; opacity: 1;" vector-effect="non-scaling-stroke"  x="-4" y="-28" rx="4" ry="4" width="8" height="56" />
</g>
<g transform="matrix(-2.08 0 0 -2.08 444.13 679.37)"  >
<rect style="stroke: none; stroke-width: 1; stroke-dasharray: none; stroke-linecap: butt; stroke-dashoffset: 0; stroke-linejoin: miter; stroke-miterlimit: 4; fill: rgb(24,90,220); fill-rule: nonzero; opacity: 1;" vector-effect="non-scaling-stroke"  x="-4" y="-8" rx="4" ry="4" width="8" height="16" />
</g>
<g transform="matrix(-2.08 0 0 -2.08 419.21 612.81)"  >
<rect style="stroke: none; stroke-width: 1; stroke-dasharray: none; stroke-linecap: butt; stroke-dashoffset: 0; stroke-linejoin: miter; stroke-miterlimit: 4; fill: rgb(255,0,0); fill-rule: nonzero; opacity: 1;" vector-effect="non-scaling-stroke"  x="-4" y="-40" rx="4" ry="4" width="8" height="80" />
</g>
<g transform="matrix(-2.08 0 0 -2.08 394.29 654.41)"  >
<rect style="stroke: none; stroke-width: 1; stroke-dasharray: none; stroke-linecap: butt; stroke-dashoffset: 0; stroke-linejoin: miter; stroke-miterlimit: 4; fill: rgb(121,76,198); fill-rule: nonzero; opacity: 1;" vector-effect="non-scaling-stroke"  x="-4" y="-20" rx="4" ry="4" width="8" height="40" />
</g>
<g transform="matrix(-2.08 0 0 -2.08 564.92 680.37)"  >
<rect style="stroke: none; stroke-width: 1; stroke-dasharray: none; stroke-linecap: butt; stroke-dashoffset: 0; stroke-linejoin: miter; stroke-miterlimit: 4; fill: rgb(24,90,220); fill-rule: nonzero; opacity: 1;" vector-effect="non-scaling-stroke"  x="-4" y="-4" rx="4" ry="4" width="8" height="8" />
</g>
<g transform="matrix(-2.08 0 0 -2.08 540 647.09)"  >
<rect style="stroke: none; stroke-width: 1; stroke-dasharray: none; stroke-linecap: butt; stroke-dashoffset: 0; stroke-linejoin: miter; stroke-miterlimit: 4; fill: rgb(255,0,0); fill-rule: nonzero; opacity: 1;" vector-effect="non-scaling-stroke"  x="-4" y="-20" rx="4" ry="4" width="8" height="40" />
</g>
<g transform="matrix(-2.08 0 0 -2.08 515.08 622.13)"  >
<rect style="stroke: none; stroke-width: 1; stroke-dasharray: none; stroke-linecap: butt; stroke-dashoffset: 0; stroke-linejoin: miter; stroke-miterlimit: 4; fill: rgb(121,76,198); fill-rule: nonzero; opacity: 1;" vector-effect="non-scaling-stroke"  x="-4" y="-32" rx="4" ry="4" width="8" height="64" />
</g>
<g transform="matrix(-2.08 0 0 -2.08 696.82 672.36)"  >
<rect style="stroke: none; stroke-width: 1; stroke-dasharray: none; stroke-linecap: butt; stroke-dashoffset: 0; stroke-linejoin: miter; stroke-miterlimit: 4; fill: rgb(24,90,220); fill-rule: nonzero; opacity: 1;" vector-effect="non-scaling-stroke"  x="-4" y="-6" rx="4" ry="4" width="8" height="12" />
</g>
<g transform="matrix(-2.08 0 0 -2.08 671.9 634.92)"  >
<rect style="stroke: none; stroke-width: 1; stroke-dasharray: none; stroke-linecap: butt; stroke-dashoffset: 0; stroke-linejoin: miter; stroke-miterlimit: 4; fill: rgb(255,0,0); fill-rule: nonzero; opacity: 1;" vector-effect="non-scaling-stroke"  x="-4" y="-24" rx="4" ry="4" width="8" height="48" />
</g>
<g transform="matrix(-2.08 0 0 -2.08 646.97 657.8)"  >
<rect style="stroke: none; stroke-width: 1; stroke-dasharray: none; stroke-linecap: butt; stroke-dashoffset: 0; stroke-linejoin: miter; stroke-miterlimit: 4; fill: rgb(121,76,198); fill-rule: nonzero; opacity: 1;" vector-effect="non-scaling-stroke"  x="-4" y="-13" rx="4" ry="4" width="8" height="26" />
</g>
<g transform="matrix(-2.08 0 0 -2.08 827.66 635.74)"  >
<rect style="stroke: none; stroke-width: 1; stroke-dasharray: none; stroke-linecap: butt; stroke-dashoffset: 0; stroke-linejoin: miter; stroke-miterlimit: 4; fill: rgb(24,90,220); fill-rule: nonzero; opacity: 1;" vector-effect="non-scaling-stroke"  x="-4" y="-24" rx="4" ry="4" width="8" height="48" />
</g>
<g transform="matrix(-2.08 0 0 -2.08 802.74 592.06)"  >
<rect style="stroke: none; stroke-width: 1; stroke-dasharray: none; stroke-linecap: butt; stroke-dashoffset: 0; stroke-linejoin: miter; stroke-miterlimit: 4; fill: rgb(255,0,0); fill-rule: nonzero; opacity: 1;" vector-effect="non-scaling-stroke"  x="-4" y="-45" rx="4" ry="4" width="8" height="90" />
</g>
<g transform="matrix(-2.08 0 0 -2.08 777.82 619.1)"  >
<rect style="stroke: none; stroke-width: 1; stroke-dasharray: none; stroke-linecap: butt; stroke-dashoffset: 0; stroke-linejoin: miter; stroke-miterlimit: 4; fill: rgb(121,76,198); fill-rule: nonzero; opacity: 1;" vector-effect="non-scaling-stroke"  x="-4" y="-32" rx="4" ry="4" width="8" height="64" />
</g>
<g transform="matrix(2.08 0 0 2.08 702.21 411.28)"  >
<rect style="stroke: none; stroke-width: 1; stroke-dasharray: none; stroke-linecap: butt; stroke-dashoffset: 0; stroke-linejoin: miter; stroke-miterlimit: 4; fill: rgb(255,255,255); fill-rule: nonzero; opacity: 1;" vector-effect="non-scaling-stroke"  x="-69.5" y="-15.5" rx="5.5" ry="5.5" width="139" height="31" />
</g>
<g transform="matrix(2.08 0 0 2.08 656.46 411.08)"  >
<path style="stroke: none; stroke-width: 1; stroke-dasharray: none; stroke-linecap: butt; stroke-dashoffset: 0; stroke-linejoin: miter; stroke-miterlimit: 4; fill: rgb(65,78,129); fill-rule: nonzero; opacity: 1;" vector-effect="non-scaling-stroke"  transform=" translate(-316.02, -137.93)" d="M 285.152 142 L 288.356 142 C 290.708 142 292.088 140.224 292.088 137.884 C 292.088 135.532 290.708 133.732 288.356 133.732 L 285.152 133.732 L 285.152 142 Z M 286.244 140.992 L 286.244 134.74 L 288.356 134.74 C 290.096 134.74 290.996 136.12 290.996 137.884 C 290.996 139.648 290.096 140.992 288.356 140.992 L 286.244 140.992 Z M 298.297 136.396 L 298.297 137.272 C 297.925 136.612 297.133 136.276 296.293 136.276 C 294.757 136.276 293.497 137.416 293.497 139.192 C 293.497 140.956 294.769 142.12 296.305 142.12 C 297.109 142.12 297.925 141.76 298.297 141.112 L 298.297 142 L 299.341 142 L 299.341 136.396 L 298.297 136.396 Z M 296.389 141.136 C 295.369 141.136 294.553 140.296 294.553 139.18 C 294.553 138.052 295.369 137.26 296.389 137.26 C 297.313 137.26 298.297 137.968 298.297 139.18 C 298.297 140.38 297.397 141.136 296.389 141.136 Z M 304.108 136.396 L 302.896 136.396 L 302.896 134.272 L 301.852 134.272 L 301.852 136.396 L 300.844 136.396 L 300.844 137.296 L 301.852 137.296 L 301.852 142 L 302.896 142 L 302.896 137.296 L 304.108 137.296 L 304.108 136.396 Z M 309.836 136.396 L 309.836 137.272 C 309.464 136.612 308.672 136.276 307.832 136.276 C 306.296 136.276 305.036 137.416 305.036 139.192 C 305.036 140.956 306.308 142.12 307.844 142.12 C 308.648 142.12 309.464 141.76 309.836 141.112 L 309.836 142 L 310.88 142 L 310.88 136.396 L 309.836 136.396 Z M 307.928 141.136 C 306.908 141.136 306.092 140.296 306.092 139.18 C 306.092 138.052 306.908 137.26 307.928 137.26 C 308.852 137.26 309.836 137.968 309.836 139.18 C 309.836 140.38 308.936 141.136 307.928 141.136 Z M 320.816 142 L 322.124 142 L 319.928 138.868 C 321.488 138.712 322.088 137.512 322.088 136.312 C 322.088 135.028 321.392 133.732 319.592 133.732 L 316.484 133.732 L 316.484 142 L 317.576 142 L 317.576 138.88 L 318.656 138.88 L 320.816 142 Z M 317.576 134.74 L 319.616 134.74 C 320.456 134.74 320.996 135.388 320.996 136.312 C 320.996 137.248 320.516 137.884 319.304 137.884 L 317.576 137.884 L 317.576 134.74 Z M 326.245 142.12 C 327.841 142.12 329.185 140.956 329.185 139.18 C 329.185 137.404 327.841 136.276 326.245 136.276 C 324.649 136.276 323.317 137.404 323.317 139.18 C 323.317 140.956 324.649 142.12 326.245 142.12 Z M 326.245 141.136 C 325.225 141.136 324.373 140.344 324.373 139.18 C 324.373 138.028 325.225 137.26 326.245 137.26 C 327.277 137.26 328.141 138.028 328.141 139.18 C 328.141 140.344 327.277 141.136 326.245 141.136 Z M 333.433 142.12 C 335.029 142.12 336.373 140.956 336.373 139.18 C 336.373 137.404 335.029 136.276 333.433 136.276 C 331.837 136.276 330.505 137.404 330.505 139.18 C 330.505 140.956 331.837 142.12 333.433 142.12 Z M 333.433 141.136 C 332.413 141.136 331.561 140.344 331.561 139.18 C 331.561 138.028 332.413 137.26 333.433 137.26 C 334.465 137.26 335.329 138.028 335.329 139.18 C 335.329 140.344 334.465 141.136 333.433 141.136 Z M 344.724 136.276 C 344.16 136.276 343.272 136.444 342.768 137.44 C 342.444 136.696 341.736 136.276 340.92 136.276 C 340.128 136.276 339.408 136.648 339.12 137.248 L 339.12 136.396 L 338.076 136.396 L 338.076 142 L 339.12 142 L 339.12 138.964 C 339.12 137.776 339.912 137.284 340.704 137.284 C 341.448 137.284 341.964 137.872 341.964 138.82 L 341.964 142 L 343.008 142 L 343.008 139.144 L 343.02 139.192 C 342.924 138.112 343.524 137.272 344.52 137.284 C 345.336 137.284 345.852 137.884 345.852 138.82 L 345.852 142 L 346.896 142 L 346.896 138.76 C 346.896 137.188 346.128 136.276 344.724 136.276 Z" stroke-linecap="round" />
</g>
<g transform="matrix(2.08 0 0 2.08 799.63 413.17)"  >
<path style="stroke: none; stroke-width: 1; stroke-dasharray: none; stroke-linecap: butt; stroke-dashoffset: 0; stroke-linejoin: miter; stroke-miterlimit: 4; fill: rgb(65,78,129); fill-rule: evenodd; opacity: 1;" vector-effect="non-scaling-stroke"  transform=" translate(-385, -138.93)" d="M 381.242 136.277 C 380.948 135.988 380.473 135.988 380.179 136.277 C 379.887 136.568 379.887 137.04 380.179 137.331 L 384.469 141.583 C 384.762 141.873 385.238 141.873 385.531 141.583 L 389.821 137.331 C 390.113 137.04 390.113 136.568 389.821 136.277 C 389.528 135.988 389.052 135.988 388.758 136.277 L 384.998 140.006 L 381.242 136.277 Z" stroke-linecap="round" />
</g>
<g transform="matrix(2.08 0 0 2.08 702.21 411.28)"  >
<rect style="stroke: rgb(213,220,246); stroke-width: 1; stroke-dasharray: none; stroke-linecap: butt; stroke-dashoffset: 0; stroke-linejoin: miter; stroke-miterlimit: 4; fill: none; fill-rule: nonzero; opacity: 1;" vector-effect="non-scaling-stroke"  x="-69.5" y="-15.5" rx="5.5" ry="5.5" width="139" height="31" />
</g>
<g transform="matrix(2.08 0 0 2.08 702.21 336.51)"  >
<rect style="stroke: none; stroke-width: 1; stroke-dasharray: none; stroke-linecap: butt; stroke-dashoffset: 0; stroke-linejoin: miter; stroke-miterlimit: 4; fill: rgb(255,255,255); fill-rule: nonzero; opacity: 1;" vector-effect="non-scaling-stroke"  x="-69.5" y="-15.5" rx="5.5" ry="5.5" width="139" height="31" />
</g>
<g transform="matrix(2.08 0 0 2.08 592.99 336.49)"  >
<path style="stroke: none; stroke-width: 1; stroke-dasharray: none; stroke-linecap: butt; stroke-dashoffset: 0; stroke-linejoin: miter; stroke-miterlimit: 4; fill: rgb(65,78,129); fill-rule: nonzero; opacity: 1;" vector-effect="non-scaling-stroke"  transform=" translate(-285.5, -102)" d="M 290.06 96.4801 L 289.1 96.4801 L 289.1 94.5601 L 287.66 94.5601 L 287.66 96.4801 L 283.34 96.4801 L 283.34 94.5601 L 281.9 94.5601 L 281.9 96.4801 L 280.94 96.4801 C 279.482 96.4801 278.3 97.6623 278.3 99.1201 L 278.3 106.8 C 278.3 108.258 279.482 109.44 280.94 109.44 L 290.06 109.44 C 291.518 109.44 292.7 108.258 292.7 106.8 L 292.7 99.1201 C 292.7 97.6623 291.518 96.4801 290.06 96.4801 Z M 280.94 97.9201 L 281.9 97.9201 L 281.9 99.8401 L 283.34 99.8401 L 283.34 97.9201 L 287.66 97.9201 L 287.66 99.8401 L 289.1 99.8401 L 289.1 97.9201 L 290.06 97.9201 C 290.378 97.9201 290.683 98.0466 290.908 98.2716 C 291.133 98.4966 291.26 98.8022 291.26 99.1201 L 291.26 104.4 L 279.74 104.4 L 279.74 99.1201 C 279.74 98.4573 280.277 97.9201 280.94 97.9201 Z M 290.06 108 L 280.94 108 C 280.277 108 279.74 107.463 279.74 106.8 L 279.74 105.84 L 291.26 105.84 L 291.26 106.8 C 291.26 107.118 291.133 107.424 290.908 107.649 C 290.684 107.874 290.378 108 290.06 108 Z" stroke-linecap="round" />
</g>
<g transform="matrix(2.08 0 0 2.08 718.89 337.04)"  >
<path style="stroke: none; stroke-width: 1; stroke-dasharray: none; stroke-linecap: butt; stroke-dashoffset: 0; stroke-linejoin: miter; stroke-miterlimit: 4; fill: rgb(65,78,129); fill-rule: nonzero; opacity: 1;" vector-effect="non-scaling-stroke"  transform=" translate(-346.06, -102.26)" d="M 312.072 105 L 311.052 96.732 L 310.068 96.732 L 307.128 102.864 L 304.176 96.732 L 303.192 96.732 L 302.184 105 L 303.252 105 L 304.008 98.7 L 306.66 104.1 L 307.608 104.1 L 310.236 98.7 L 311.004 105 L 312.072 105 Z M 318.328 99.396 L 318.328 100.272 C 317.956 99.612 317.164 99.276 316.324 99.276 C 314.788 99.276 313.528 100.416 313.528 102.192 C 313.528 103.956 314.8 105.12 316.336 105.12 C 317.14 105.12 317.956 104.76 318.328 104.112 L 318.328 105 L 319.372 105 L 319.372 99.396 L 318.328 99.396 Z M 316.42 104.136 C 315.4 104.136 314.584 103.296 314.584 102.18 C 314.584 101.052 315.4 100.26 316.42 100.26 C 317.344 100.26 318.328 100.968 318.328 102.18 C 318.328 103.38 317.428 104.136 316.42 104.136 Z M 325.279 99.396 L 323.563 103.524 L 321.871 99.396 L 320.743 99.396 L 322.987 104.844 L 321.823 107.724 L 322.927 107.724 L 326.407 99.396 L 325.279 99.396 Z M 334.358 100.788 C 334.97 100.5 335.342 99.888 335.342 99.144 C 335.342 97.884 334.43 97.056 333.062 97.056 C 332.174 97.056 331.322 97.512 330.926 98.196 L 331.646 98.796 C 331.946 98.34 332.498 98.052 333.038 98.052 C 333.794 98.052 334.298 98.496 334.298 99.168 C 334.298 99.876 333.758 100.368 332.93 100.368 L 332.186 100.368 L 332.186 101.268 L 333.002 101.268 C 333.974 101.268 334.67 101.856 334.67 102.744 C 334.67 103.572 333.95 104.124 332.966 104.124 C 332.294 104.124 331.682 103.692 331.334 102.984 L 330.47 103.476 C 330.938 104.496 331.898 105.108 333.002 105.108 C 334.598 105.108 335.726 104.148 335.726 102.708 C 335.726 101.784 335.174 101.052 334.358 100.788 Z M 339.617 97.056 L 336.941 98.256 L 336.941 99.264 L 338.609 98.58 L 338.609 105 L 339.653 105 L 339.653 97.056 L 339.617 97.056 Z M 345.164 102.648 L 350.6 102.648 L 350.6 101.748 L 345.164 101.748 L 345.164 102.648 Z M 354.745 107.796 C 356.605 107.796 357.301 106.56 357.301 105.12 L 357.301 96.732 L 356.209 96.732 L 356.209 105.12 C 356.209 105.996 355.813 106.74 354.745 106.74 C 354.649 106.74 354.157 106.704 353.977 106.644 L 353.869 107.664 C 354.145 107.724 354.529 107.796 354.745 107.796 Z M 363.647 99.396 L 363.647 102.432 C 363.635 103.644 362.699 104.088 361.919 104.088 C 361.139 104.088 360.575 103.512 360.575 102.576 L 360.575 99.396 L 359.531 99.396 L 359.531 102.636 C 359.519 104.208 360.383 105.12 361.787 105.12 C 362.411 105.12 363.311 104.82 363.647 104.124 L 363.647 105 L 364.691 105 L 364.691 99.396 L 363.647 99.396 Z M 369.66 99.276 C 369.048 99.276 368.136 99.564 367.8 100.248 L 367.8 99.396 L 366.756 99.396 L 366.756 105 L 367.8 105 L 367.8 101.964 C 367.8 100.752 368.736 100.308 369.516 100.308 C 370.296 100.308 370.872 100.884 370.872 101.82 L 370.872 105 L 371.916 105 L 371.916 101.76 C 371.928 100.188 371.052 99.276 369.66 99.276 Z M 379.833 105.12 C 382.089 105.12 382.677 103.308 382.677 101.1 C 382.677 98.868 382.089 97.056 379.833 97.056 C 377.577 97.056 376.989 98.868 376.989 101.1 C 376.989 103.308 377.577 105.12 379.833 105.12 Z M 379.833 104.136 C 378.393 104.136 378.045 102.732 378.045 101.1 C 378.045 99.444 378.393 98.052 379.833 98.052 C 381.273 98.052 381.633 99.444 381.633 101.1 C 381.633 102.732 381.273 104.136 379.833 104.136 Z M 389.945 102.396 L 388.829 102.396 L 388.829 97.152 L 388.649 97.152 L 383.777 103.152 L 383.777 103.38 L 387.785 103.38 L 387.785 105 L 388.829 105 L 388.829 103.38 L 389.945 103.38 L 389.945 102.396 Z M 385.529 102.396 L 387.785 99.696 L 387.785 102.396 L 385.529 102.396 Z" stroke-linecap="round" />
</g>
<g transform="matrix(2.08 0 0 2.08 702.21 336.51)"  >
<rect style="stroke: rgb(213,220,246); stroke-width: 1; stroke-dasharray: none; stroke-linecap: butt; stroke-dashoffset: 0; stroke-linejoin: miter; stroke-miterlimit: 4; fill: none; fill-rule: nonzero; opacity: 1;" vector-effect="non-scaling-stroke"  x="-69.5" y="-15.5" rx="5.5" ry="5.5" width="139" height="31" />
</g>
<g transform="matrix(2.08 0 0 2.08 294 338.04)"  >
<path style="stroke: none; stroke-width: 1; stroke-dasharray: none; stroke-linecap: butt; stroke-dashoffset: 0; stroke-linejoin: miter; stroke-miterlimit: 4; fill: rgb(43,54,100); fill-rule: nonzero; opacity: 1;" vector-effect="non-scaling-stroke"  transform=" translate(-141.51, -102.74)" d="M 120.432 107 L 122.376 107 L 117.696 94.598 L 115.716 94.598 L 111.018 107 L 112.962 107 L 114.114 103.868 L 119.262 103.868 L 120.432 107 Z M 114.708 102.248 L 116.688 96.902 L 118.668 102.248 L 114.708 102.248 Z M 127.915 107.162 C 129.283 107.162 130.453 106.604 131.191 105.722 L 130.021 104.624 C 129.535 105.164 128.797 105.506 127.951 105.506 C 126.385 105.506 125.143 104.39 125.143 102.788 C 125.143 101.186 126.385 100.07 127.951 100.07 C 128.797 100.07 129.535 100.412 130.021 100.952 L 131.191 99.854 C 130.453 98.972 129.283 98.414 127.915 98.414 C 125.485 98.414 123.379 100.124 123.379 102.788 C 123.379 105.452 125.485 107.162 127.915 107.162 Z M 137.611 98.594 L 135.811 98.594 L 135.811 95.444 L 134.047 95.444 L 134.047 98.594 L 132.535 98.594 L 132.535 100.07 L 134.047 100.07 L 134.047 107 L 135.811 107 L 135.811 100.07 L 137.611 100.07 L 137.611 98.594 Z M 140.419 96.668 C 141.085 96.668 141.625 96.182 141.625 95.534 C 141.625 94.886 141.085 94.4 140.419 94.4 C 139.771 94.4 139.213 94.886 139.213 95.534 C 139.213 96.182 139.771 96.668 140.419 96.668 Z M 139.537 107 L 141.301 107 L 141.301 98.594 L 139.537 98.594 L 139.537 107 Z M 149.887 98.594 L 147.439 104.714 L 144.991 98.594 L 143.101 98.594 L 146.611 107 L 148.285 107 L 151.795 98.594 L 149.887 98.594 Z M 154.454 96.668 C 155.12 96.668 155.66 96.182 155.66 95.534 C 155.66 94.886 155.12 94.4 154.454 94.4 C 153.806 94.4 153.248 94.886 153.248 95.534 C 153.248 96.182 153.806 96.668 154.454 96.668 Z M 153.572 107 L 155.336 107 L 155.336 98.594 L 153.572 98.594 L 153.572 107 Z M 162.5 98.594 L 160.7 98.594 L 160.7 95.444 L 158.936 95.444 L 158.936 98.594 L 157.424 98.594 L 157.424 100.07 L 158.936 100.07 L 158.936 107 L 160.7 107 L 160.7 100.07 L 162.5 100.07 L 162.5 98.594 Z M 170.095 98.594 L 167.683 104.444 L 165.271 98.594 L 163.363 98.594 L 166.711 106.64 L 164.911 111.086 L 166.783 111.086 L 172.003 98.594 L 170.095 98.594 Z" stroke-linecap="round" />
</g>
<g transform="matrix(NaN NaN NaN NaN 0 0)"  >
<g style=""   >
</g>
</g>
<g transform="matrix(NaN NaN NaN NaN 0 0)"  >
<g style=""   >
</g>
</g>
<g transform="matrix(NaN NaN NaN NaN 0 0)"  >
<g style=""   >
</g>
</g>
<g transform="matrix(NaN NaN NaN NaN 0 0)"  >
<g style=""   >
</g>
</g>
<g transform="matrix(NaN NaN NaN NaN 0 0)"  >
<g style=""   >
</g>
</g>
<g transform="matrix(1 0 0 1 519.73 498.47)" style="" id="d99ea70d-fb64-4a2d-b7a7-b75d6a17d837"  >
		<text xml:space="preserve" font-family="Lato" font-size="25" font-style="normal" font-weight="400" style="stroke: none; stroke-width: 1; stroke-dasharray: none; stroke-linecap: butt; stroke-dashoffset: 0; stroke-linejoin: miter; stroke-miterlimit: 4; fill: rgb(255,255,255); fill-rule: nonzero; opacity: 1; white-space: pre;" ><tspan x="-80.99" y="7.85" >Calls Attended</tspan></text>
</g>
</svg>