<svg version="1.1" id="Layer_1" xmlns="http://www.w3.org/2000/svg" xmlns:xlink="http://www.w3.org/1999/xlink" x="0px" y="0px"
	 width="100%" viewBox="0 0 500 500" enable-background="new 0 0 500 500" xml:space="preserve">
<path fill="#FF0000" opacity="1.000000" stroke="none" 
	d="
M501.000000,188.000000 
	C501.000000,292.666656 501.000000,396.833282 501.000000,500.999939 
	C334.333405,500.999969 167.666794,500.999969 1.000145,501.000000 
	C1.000097,334.333435 1.000097,167.666870 1.000048,1.000235 
	C167.666519,1.000157 334.333038,1.000157 500.999786,1.000078 
	C501.000000,63.166668 501.000000,125.333336 501.000000,188.000000 
M325.500000,33.999207 
	C232.006470,33.999207 138.512955,33.997326 45.019432,34.002350 
	C36.417294,34.002811 34.001102,36.404007 34.000950,44.910385 
	C33.998501,182.234253 33.998436,319.558105 34.001034,456.881989 
	C34.001202,465.766571 36.268875,468.000519 45.232040,468.000549 
	C182.389252,468.000824 319.546448,468.000854 456.703674,468.000580 
	C465.821899,468.000580 467.999786,465.773468 467.999878,456.423828 
	C468.001129,319.433258 468.001404,182.442703 467.999420,45.452141 
	C467.999298,36.259579 465.730499,34.001595 456.491028,34.000820 
	C413.160675,33.997200 369.830353,33.999207 325.500000,33.999207 
z"/>
<path fill="#FFFFFF" opacity="1.000000" stroke="none" 
	d="
M326.000000,33.999207 
	C369.830353,33.999207 413.160675,33.997200 456.491028,34.000820 
	C465.730499,34.001595 467.999298,36.259579 467.999420,45.452141 
	C468.001404,182.442703 468.001129,319.433258 467.999878,456.423828 
	C467.999786,465.773468 465.821899,468.000580 456.703674,468.000580 
	C319.546448,468.000854 182.389252,468.000824 45.232040,468.000549 
	C36.268875,468.000519 34.001202,465.766571 34.001034,456.881989 
	C33.998436,319.558105 33.998501,182.234253 34.000950,44.910385 
	C34.001102,36.404007 36.417294,34.002811 45.019432,34.002350 
	C138.512955,33.997326 232.006470,33.999207 326.000000,33.999207 
M171.500000,185.999237 
	C219.583023,185.999237 267.666046,185.999237 316.000732,185.999237 
	C316.000732,188.395630 316.000702,190.205063 316.000702,192.014481 
	C316.000702,253.163696 316.000702,314.312927 316.000732,375.462128 
	C316.000732,388.625031 315.968903,401.788055 316.014282,414.950775 
	C316.037231,421.613495 318.451721,424.033478 324.917267,424.035339 
	C355.241943,424.044128 385.566620,424.045135 415.891296,424.033539 
	C421.997620,424.031189 424.056702,422.082703 424.059082,416.102539 
	C424.102936,306.300964 424.131897,196.499374 424.138184,86.697800 
	C424.138580,79.637589 422.353180,77.964890 415.219910,77.964584 
	C305.751160,77.959869 196.282410,77.959816 86.813652,77.964600 
	C79.437714,77.964928 77.916504,79.538460 77.914558,87.147087 
	C77.906982,116.805290 77.906570,146.463486 77.914894,176.121689 
	C77.917099,183.985016 79.980080,185.995010 88.023544,185.996826 
	C115.515694,186.003052 143.007843,185.999237 171.500000,185.999237 
M185.497391,422.102661 
	C222.031021,412.978302 248.479645,381.464600 250.873978,344.204834 
	C254.130768,293.523407 212.394577,245.096344 151.777145,253.404388 
	C107.700890,259.445343 74.015945,299.416565 79.355240,347.964294 
	C84.790390,397.383484 130.130417,433.649323 185.497391,422.102661 
z"/>
<path fill="#FF0000" opacity="1.000000" stroke="none" 
	d="
M171.000000,185.999237 
	C143.007843,185.999237 115.515694,186.003052 88.023544,185.996826 
	C79.980080,185.995010 77.917099,183.985016 77.914894,176.121689 
	C77.906570,146.463486 77.906982,116.805290 77.914558,87.147087 
	C77.916504,79.538460 79.437714,77.964928 86.813652,77.964600 
	C196.282410,77.959816 305.751160,77.959869 415.219910,77.964584 
	C422.353180,77.964890 424.138580,79.637589 424.138184,86.697800 
	C424.131897,196.499374 424.102936,306.300964 424.059082,416.102539 
	C424.056702,422.082703 421.997620,424.031189 415.891296,424.033539 
	C385.566620,424.045135 355.241943,424.044128 324.917267,424.035339 
	C318.451721,424.033478 316.037231,421.613495 316.014282,414.950775 
	C315.968903,401.788055 316.000732,388.625031 316.000732,375.462128 
	C316.000702,314.312927 316.000702,253.163696 316.000702,192.014481 
	C316.000702,190.205063 316.000732,188.395630 316.000732,185.999237 
	C267.666046,185.999237 219.583023,185.999237 171.000000,185.999237 
z"/>
<path fill="#FF0101" opacity="1.000000" stroke="none" 
	d="
M185.083496,422.171875 
	C130.130417,433.649323 84.790390,397.383484 79.355240,347.964294 
	C74.015945,299.416565 107.700890,259.445343 151.777145,253.404388 
	C212.394577,245.096344 254.130768,293.523407 250.873978,344.204834 
	C248.479645,381.464600 222.031021,412.978302 185.083496,422.171875 
z"/>
</svg>