<svg version="1.1" id="Layer_1" xmlns="http://www.w3.org/2000/svg" xmlns:xlink="http://www.w3.org/1999/xlink" x="0px" y="0px"
	 width="100%" viewBox="0 0 500 500" enable-background="new 0 0 500 500" xml:space="preserve">
<path fill="#FFFFFF" opacity="1.000000" stroke="none" 
	d="
M305.000000,501.000000 
	C203.333359,501.000000 102.166718,501.000000 1.000054,501.000000 
	C1.000036,334.333405 1.000036,167.666794 1.000018,1.000144 
	C167.666565,1.000096 334.333130,1.000096 500.999756,1.000048 
	C500.999847,167.666519 500.999847,334.333038 500.999939,500.999786 
	C435.833344,501.000000 370.666656,501.000000 305.000000,501.000000 
M451.000000,416.500000 
	C450.999939,298.368347 451.000488,180.236664 450.998718,62.104996 
	C450.998566,53.410275 448.681610,51.005753 440.180542,51.005249 
	C314.051208,50.997765 187.921890,50.997868 61.792568,51.005066 
	C53.356640,51.005547 51.120148,53.255314 51.118507,61.658459 
	C51.111782,96.148247 51.112484,130.638031 51.117912,165.127823 
	C51.119297,173.941299 53.188511,175.999924 61.992889,176.000000 
	C147.967438,176.000763 233.941986,176.000473 319.916534,176.000473 
	C321.853119,176.000473 323.789734,176.000488 326.000000,176.000488 
	C326.000000,178.527603 326.000000,180.499756 326.000000,182.471924 
	C326.000000,268.613098 325.998596,354.754242 326.002472,440.895416 
	C326.002808,448.543671 328.468231,450.996887 336.138458,450.997925 
	C371.128113,451.002625 406.117737,451.004700 441.107391,450.996094 
	C448.238953,450.994354 450.952240,448.261627 450.990570,440.992981 
	C451.031891,433.162201 450.999969,425.331024 451.000000,416.500000 
M53.173988,339.944885 
	C53.387615,348.920319 52.693100,358.026398 53.962132,366.850037 
	C62.246616,424.452728 119.764870,462.454620 176.116180,447.913391 
	C248.175980,429.318634 275.357178,341.691223 226.027802,286.047089 
	C206.906403,264.477905 182.691986,253.199585 153.399384,252.846313 
	C133.271820,252.603561 114.820137,257.351379 98.080566,268.350800 
	C72.549110,285.127319 57.834866,308.896301 53.173988,339.944885 
z"/>
<path fill="#FF0000" opacity="1.000000" stroke="none" 
	d="
M451.000000,417.000000 
	C450.999969,425.331024 451.031891,433.162201 450.990570,440.992981 
	C450.952240,448.261627 448.238953,450.994354 441.107391,450.996094 
	C406.117737,451.004700 371.128113,451.002625 336.138458,450.997925 
	C328.468231,450.996887 326.002808,448.543671 326.002472,440.895416 
	C325.998596,354.754242 326.000000,268.613098 326.000000,182.471924 
	C326.000000,180.499756 326.000000,178.527603 326.000000,176.000488 
	C323.789734,176.000488 321.853119,176.000473 319.916534,176.000473 
	C233.941986,176.000473 147.967438,176.000763 61.992889,176.000000 
	C53.188511,175.999924 51.119297,173.941299 51.117912,165.127823 
	C51.112484,130.638031 51.111782,96.148247 51.118507,61.658459 
	C51.120148,53.255314 53.356640,51.005547 61.792568,51.005066 
	C187.921890,50.997868 314.051208,50.997765 440.180542,51.005249 
	C448.681610,51.005753 450.998566,53.410275 450.998718,62.104996 
	C451.000488,180.236664 450.999939,298.368347 451.000000,417.000000 
z"/>
<path fill="#FF0101" opacity="1.000000" stroke="none" 
	d="
M53.235001,339.493530 
	C57.834866,308.896301 72.549110,285.127319 98.080566,268.350800 
	C114.820137,257.351379 133.271820,252.603561 153.399384,252.846313 
	C182.691986,253.199585 206.906403,264.477905 226.027802,286.047089 
	C275.357178,341.691223 248.175980,429.318634 176.116180,447.913391 
	C119.764870,462.454620 62.246616,424.452728 53.962132,366.850037 
	C52.693100,358.026398 53.387615,348.920319 53.235001,339.493530 
z"/>
</svg>