<svg id="eptNi1kVUsv1" xmlns="http://www.w3.org/2000/svg" xmlns:xlink="http://www.w3.org/1999/xlink" viewBox="0 0 162 162" shape-rendering="geometricPrecision" text-rendering="geometricPrecision" project-id="156a9bc1c6894eb29e0b8aae0eb5f1ac" export-id="7db91ce00c8049fea07f70d39f3665e7" cached="false"><path d="M1,152c0-46.687561,0-93.375122.0005-140.894582C2.936162,5.675155,5.956162,2.246495,11,1c46.687561,0,93.375122,0,140.889343.0005c5.920456,1.991655,9.253525,5.48694,10.161286,11.465671-.067673,14.422541-.091996,28.380192-.074463,42.337796.040298,32.065876.100998,64.13174.044723,96.546451-1.2574,6.426987-5.273956,9.504562-11.481827,10.705505-10.101913-.075988-19.739562-.09732-29.377174-.085876-36.387382.043213-72.774746.097061-109.504272.032257C5.859889,160.696121,2.439136,157.381744,1,152M97.761406,60.874317c-7.990936-4.390255-15.981873-8.780506-25.074257-13.775898c18.027016,0,34.666222.139389,51.298744-.131695c2.908417-.047405,6.757454-1.016727,8.417321-3.016647c1.760421-2.12109,2.410888-6.195431,1.783843-9.026401-.963287-4.349066-4.862335-5.867863-9.315528-5.859255-24.295891.046962-48.591919.020088-72.887902.020006-3.993847-.000013-7.988029-.024-11.981453.018995-4.328399.046602-7.403492,2.212914-8.708456,6.217013-1.386833,4.25531.07005,7.855312,3.803965,10.416187c1.231285.844471,2.47369,1.69886,3.799393,2.375576C55.023109,56.34388,71.165192,64.544121,87.304253,72.750275c3.550674,1.805397,7.09172,2.204025,10.109306-.872002c3.081337-3.141006,3.336342-6.719856.347847-11.003956M73.075134,75.755058c-1.595047-1.388603-3.002807-3.122482-4.817222-4.106674-8.32071-4.51342-16.721257-8.883797-25.159123-13.175815-7.26588-3.695874-14.190338.302974-14.245022,8.404369-.134763,19.965576-.041805,39.932693-.039417,59.899193.000456,3.803123,1.293696,7.326881,5.004021,8.358513c2.765838.769043,6.875931.953674,8.797607-.585831c2.312981-1.852982,4.023335-5.775269,4.115387-8.857826.421982-14.130371.180992-28.280365.19775-42.423294.001652-1.39206.137734-2.783951.241432-4.742959c5.128407,2.682885,9.4828,5.541924,14.251355,7.233292c2.773685.983795,6.640682,1.022896,9.244434-.181045c3.425652-1.583962,4.141617-5.354233,2.408798-9.821923m62.028061,26.600769c-8.626373-6.63282-18.191582-7.249878-26.234482-1.692398-7.616844,5.263085-10.938087,14.923218-8.175735,23.779816c2.510956,8.05059,9.750755,14.011879,17.765137,14.627937c9.535522.732987,17.435592-3.487503,21.42865-11.447967c4.134338-8.242111,2.616165-17.080887-4.78357-25.267388Z" fill="#ff0101"/><path d="M162.129578,151.001572c-.052414-32.065865-.113114-64.131729-.153412-96.197605-.017533-13.957604.00679-27.915255.296203-42.337315C162.556503,12.002221,163,12,163,12c0,46.020893,0,92.041786-.217606,138.532654-.217605.469955-.652801.468918-.652816.468918Z" fill="#fff1f1"/><path d="M11.999767,162.116974c36.387375-.049866,72.774739-.103714,109.162121-.146927c9.637612-.011444,19.275261.009888,29.376137.304474C151.001282,162.562805,151,163,151,163c-46.020897,0-92.04179,0-138.531479-.220764-.468794-.220764-.468754-.662277-.468754-.662262Z" fill="#ffefef"/><path d="M97.996002,61.171738c2.753899,3.986679,2.498894,7.565529-.582443,10.706535-3.017586,3.076027-6.558632,2.677399-10.109306.872002C71.165192,64.544121,55.023109,56.34388,38.897076,48.112198c-1.325703-.676716-2.568108-1.531105-3.799393-2.375576-3.733915-2.560875-5.190798-6.160877-3.803965-10.416187c1.304964-4.004099,4.380057-6.170411,8.708456-6.217013c3.993424-.042995,7.987606-.019008,11.981453-.018995c24.295983.000082,48.592011.026956,72.887902-.020006c4.453193-.008608,8.352241,1.510189,9.315528,5.859255.627045,2.83097-.023422,6.905311-1.783843,9.026401-1.659867,1.99992-5.508904,2.969242-8.417321,3.016647-16.632522.271084-33.271728.131695-51.298744.131695c9.092384,4.995392,17.083321,9.385643,25.308853,14.073319Z" fill="#fffbfb"/><path d="M73.230286,76.111633c1.577667,4.111115.861702,7.881386-2.56395,9.465348-2.603752,1.203941-6.470749,1.16484-9.244434.181045-4.768555-1.691368-9.122948-4.550407-14.251355-7.233292-.103698,1.959008-.23978,3.350899-.241432,4.742959-.016758,14.142929.224232,28.292923-.19775,42.423294-.092052,3.082557-1.802406,7.004844-4.115387,8.857826-1.921676,1.539505-6.031769,1.354874-8.797607.585831-3.710325-1.031632-5.003565-4.55539-5.004021-8.358513-.002388-19.9665-.095346-39.933617.039417-59.899193.054684-8.101395,6.979142-12.100243,14.245022-8.404369c8.437866,4.292018,16.838413,8.662395,25.159123,13.175815c1.814415.984192,3.222175,2.718071,4.972374,4.463249Z" fill="#fffcfc"/><path d="M135.367905,102.605629c7.135025,7.936699,8.653198,16.775475,4.51886,25.017586-3.993058,7.960464-11.893128,12.180954-21.42865,11.447967-8.014382-.616058-15.254181-6.577347-17.765137-14.627937-2.762352-8.856598.558891-18.516731,8.175735-23.779816c8.0429-5.55748,17.608109-4.940422,26.499192,1.9422Z" fill="#fffcfc"/></svg>
