<?xml version="1.0" encoding="UTF-8" standalone="no" ?>
<!DOCTYPE svg PUBLIC "-//W3C//DTD SVG 1.1//EN" "http://www.w3.org/Graphics/SVG/1.1/DTD/svg11.dtd">
<svg xmlns="http://www.w3.org/2000/svg" xmlns:xlink="http://www.w3.org/1999/xlink" version="1.1" width="1080" height="1080" viewBox="0 0 1080 1080" xml:space="preserve">
<desc>Created with Fabric.js 5.2.4</desc>
<defs>
</defs>
<g transform="matrix(1 0 0 1 540 540)" id="7ab3387a-1267-4ee4-a560-bb8060a967ce"  >
</g>
<g transform="matrix(1 0 0 1 540 540)" id="f7698b21-27a8-4c1c-9bf7-86561c1752f6"  >
<rect style="stroke: none; stroke-width: 1; stroke-dasharray: none; stroke-linecap: butt; stroke-dashoffset: 0; stroke-linejoin: miter; stroke-miterlimit: 4; fill: rgb(255,255,255); fill-rule: nonzero; opacity: 1; visibility: hidden;" vector-effect="non-scaling-stroke"  x="-540" y="-540" rx="0" ry="0" width="1080" height="1080" />
</g>
<g transform="matrix(3.18 0 0 3.18 540.39 515.29)"  >
<rect style="stroke: none; stroke-width: 1; stroke-dasharray: none; stroke-linecap: butt; stroke-dashoffset: 0; stroke-linejoin: miter; stroke-miterlimit: 4; fill: rgb(255,255,255); fill-rule: nonzero; opacity: 1;" vector-effect="non-scaling-stroke"  x="-110" y="-200" rx="12" ry="12" width="220" height="400" />
</g>
<g transform="matrix(3.18 0 0 3.18 540.33 511.48)"  >
<rect style="stroke: none; stroke-width: 1; stroke-dasharray: none; stroke-linecap: butt; stroke-dashoffset: 0; stroke-linejoin: miter; stroke-miterlimit: 4; fill: rgb(246,247,254); fill-rule: nonzero; opacity: 1;" vector-effect="non-scaling-stroke"  x="-94" y="-19" rx="6" ry="6" width="188" height="38" />
</g>
<g transform="matrix(3.18 0 0 3.18 320.84 511.46)"  >
<path style="stroke: none; stroke-width: 1; stroke-dasharray: none; stroke-linecap: butt; stroke-dashoffset: 0; stroke-linejoin: miter; stroke-miterlimit: 4; fill: rgb(44,110,242); fill-rule: nonzero; opacity: 1;" vector-effect="non-scaling-stroke"  transform=" translate(-101, -251.01)" d="M 105.898 248.647 L 101.64 245.809 C 101.252 245.55 100.747 245.55 100.359 245.809 L 96.1038 248.646 C 95.7881 248.855 95.5989 249.208 95.5996 249.587 L 95.5996 256.4 L 99.9196 256.4 L 99.9196 252.8 L 102.08 252.8 L 102.08 256.4 L 106.4 256.4 L 106.4 249.587 C 106.4 249.21 106.211 248.857 105.898 248.647 L 105.898 248.647 Z M 105.32 255.32 L 103.16 255.32 L 103.16 252.44 C 103.16 252.249 103.084 252.066 102.949 251.931 C 102.814 251.796 102.631 251.72 102.44 251.72 L 99.5596 251.72 C 99.1617 251.72 98.8396 252.042 98.8396 252.44 L 98.8396 255.32 L 96.6796 255.32 L 96.6796 249.587 C 96.6796 249.57 96.6874 249.555 96.7014 249.546 L 100.958 246.707 C 100.983 246.691 101.016 246.691 101.041 246.707 L 105.298 249.546 C 105.312 249.555 105.319 249.57 105.319 249.587 L 105.32 255.32 Z" stroke-linecap="round" />
</g>
<g transform="matrix(3.18 0 0 3.18 492.69 511.53)"  >
<path style="stroke: none; stroke-width: 1; stroke-dasharray: none; stroke-linecap: butt; stroke-dashoffset: 0; stroke-linejoin: miter; stroke-miterlimit: 4; fill: rgb(43,54,100); fill-rule: nonzero; opacity: 1;" vector-effect="non-scaling-stroke"  transform=" translate(-155.07, -251.03)" d="M 119.302 256 L 123.054 256 C 125.812 256 127.422 253.928 127.422 251.198 C 127.422 248.454 125.812 246.354 123.054 246.354 L 119.302 246.354 L 119.302 256 Z M 120.744 254.684 L 120.744 247.67 L 123.054 247.67 C 124.986 247.67 125.98 249.238 125.98 251.198 C 125.98 253.158 124.986 254.684 123.054 254.684 L 120.744 254.684 Z M 134.472 249.462 L 134.472 250.428 C 134.038 249.686 133.128 249.322 132.204 249.322 C 130.44 249.322 128.97 250.638 128.97 252.724 C 128.97 254.796 130.44 256.14 132.218 256.14 C 133.1 256.14 134.038 255.762 134.472 255.02 L 134.472 256 L 135.844 256 L 135.844 249.462 L 134.472 249.462 Z M 132.372 254.838 C 131.252 254.838 130.342 253.928 130.342 252.71 C 130.342 251.478 131.252 250.624 132.372 250.624 C 133.38 250.624 134.458 251.394 134.458 252.71 C 134.458 254.026 133.478 254.838 132.372 254.838 Z M 140.159 256.14 C 141.503 256.14 142.735 255.412 142.735 254.166 C 142.735 253.466 142.427 252.598 141.027 252.248 L 140.033 252.01 C 139.627 251.912 139.249 251.688 139.249 251.282 C 139.249 250.834 139.641 250.484 140.215 250.484 C 140.705 250.484 141.195 250.806 141.195 251.282 L 142.511 251.282 C 142.511 249.91 141.307 249.322 140.187 249.322 C 138.829 249.322 137.863 250.176 137.863 251.24 C 137.863 252.206 138.423 252.836 139.641 253.158 L 140.523 253.368 C 141.013 253.48 141.363 253.704 141.363 254.138 C 141.363 254.628 140.901 254.978 140.145 254.978 C 139.403 254.978 138.941 254.53 138.941 254.012 L 137.667 254.012 C 137.695 255.37 138.941 256.14 140.159 256.14 Z M 148.1 249.322 C 147.4 249.322 146.35 249.658 145.972 250.456 L 145.972 245.92 L 144.6 245.92 L 144.6 256 L 145.972 256 L 145.972 252.514 C 145.972 251.156 147.008 250.68 147.862 250.68 C 148.702 250.68 149.346 251.296 149.346 252.36 L 149.346 256 L 150.718 256 L 150.718 252.262 C 150.732 250.4 149.752 249.322 148.1 249.322 Z M 156.57 249.322 C 155.646 249.322 154.736 249.686 154.302 250.428 L 154.302 245.92 L 152.93 245.92 L 152.93 256 L 154.302 256 L 154.302 255.02 C 154.736 255.762 155.688 256.14 156.57 256.14 C 158.334 256.14 159.818 254.796 159.818 252.724 C 159.818 250.638 158.348 249.322 156.57 249.322 Z M 156.402 254.838 C 155.31 254.838 154.316 254.026 154.316 252.71 C 154.316 251.394 155.394 250.624 156.402 250.624 C 157.536 250.624 158.432 251.478 158.432 252.71 C 158.432 253.928 157.536 254.838 156.402 254.838 Z M 164.694 256.14 C 166.556 256.14 168.138 254.782 168.138 252.71 C 168.138 250.638 166.556 249.322 164.694 249.322 C 162.832 249.322 161.264 250.638 161.264 252.71 C 161.264 254.782 162.832 256.14 164.694 256.14 Z M 164.694 254.838 C 163.574 254.838 162.636 253.984 162.636 252.71 C 162.636 251.45 163.574 250.61 164.694 250.61 C 165.814 250.61 166.766 251.45 166.766 252.71 C 166.766 253.984 165.814 254.838 164.694 254.838 Z M 175.11 249.462 L 175.11 250.428 C 174.676 249.686 173.766 249.322 172.842 249.322 C 171.078 249.322 169.608 250.638 169.608 252.724 C 169.608 254.796 171.078 256.14 172.856 256.14 C 173.738 256.14 174.676 255.762 175.11 255.02 L 175.11 256 L 176.482 256 L 176.482 249.462 L 175.11 249.462 Z M 173.01 254.838 C 171.89 254.838 170.98 253.928 170.98 252.71 C 170.98 251.478 171.89 250.624 173.01 250.624 C 174.018 250.624 175.096 251.394 175.096 252.71 C 175.096 254.026 174.116 254.838 173.01 254.838 Z M 182.002 249.322 C 181.162 249.322 180.504 249.784 180.168 250.932 L 180.168 249.462 L 178.782 249.462 L 178.782 256 L 180.168 256 L 180.168 253.648 C 180.168 251.884 180.728 250.638 181.918 250.638 C 182.184 250.638 182.52 250.694 182.884 250.862 L 183.122 249.56 C 182.912 249.434 182.45 249.322 182.002 249.322 Z M 189.46 245.92 L 189.46 250.428 C 189.026 249.686 188.116 249.322 187.192 249.322 C 185.428 249.322 183.958 250.638 183.958 252.724 C 183.958 254.796 185.428 256.14 187.206 256.14 C 188.088 256.14 189.026 255.762 189.46 255.02 L 189.46 256 L 190.832 256 L 190.832 245.92 L 189.46 245.92 Z M 187.36 254.838 C 186.24 254.838 185.33 253.928 185.33 252.71 C 185.33 251.478 186.24 250.624 187.36 250.624 C 188.368 250.624 189.446 251.394 189.446 252.71 C 189.446 254.026 188.466 254.838 187.36 254.838 Z" stroke-linecap="round" />
</g>
<g transform="matrix(3.18 0 0 3.18 320.78 660.73)"  >
<path style="stroke: none; stroke-width: 1; stroke-dasharray: none; stroke-linecap: butt; stroke-dashoffset: 0; stroke-linejoin: miter; stroke-miterlimit: 4; fill: rgb(44,110,242); fill-rule: nonzero; opacity: 1;" vector-effect="non-scaling-stroke"  transform=" translate(-100.98, -298)" d="M 103.942 292.96 C 103.386 292.959 102.851 293.179 102.459 293.574 L 101.7 294.333 L 100.919 293.552 L 100.918 293.552 C 100.368 293.002 99.4757 293.002 98.9252 293.552 L 95.918 296.56 L 96.6809 297.323 L 99.6888 294.317 C 99.8189 294.192 100.025 294.192 100.155 294.317 L 100.936 295.098 L 97.2948 298.738 C 96.4377 299.591 95.9574 300.752 95.9609 301.96 L 95.9609 303.04 L 97.0409 303.04 C 98.2496 303.044 99.4105 302.563 100.263 301.706 L 105.427 296.542 C 106.027 295.941 106.206 295.039 105.881 294.255 C 105.556 293.471 104.791 292.96 103.942 292.96 L 103.942 292.96 Z M 99.4996 300.941 C 98.8478 301.594 97.9632 301.96 97.0408 301.96 C 97.0408 301.038 97.4071 300.153 98.0596 299.501 L 101.699 295.862 L 103.139 297.302 L 99.4996 300.941 Z M 104.662 295.779 L 103.903 296.538 L 102.463 295.098 L 103.222 294.339 C 103.41 294.137 103.673 294.021 103.949 294.016 C 104.225 294.012 104.491 294.119 104.687 294.314 C 104.881 294.51 104.989 294.775 104.985 295.052 C 104.98 295.328 104.864 295.59 104.662 295.779 Z" stroke-linecap="round" />
</g>
<g transform="matrix(3.18 0 0 3.18 762.38 660.46)"  >
<path style="stroke: none; stroke-width: 1; stroke-dasharray: none; stroke-linecap: butt; stroke-dashoffset: 0; stroke-linejoin: miter; stroke-miterlimit: 4; fill: rgb(65,78,129); fill-rule: evenodd; opacity: 1;" vector-effect="non-scaling-stroke"  transform=" translate(-240, -297.92)" d="M 235.705 294.888 C 235.37 294.557 234.826 294.557 234.491 294.888 C 234.156 295.221 234.156 295.76 234.491 296.092 L 239.393 300.951 C 239.728 301.283 240.272 301.283 240.607 300.951 L 245.509 296.092 C 245.844 295.76 245.844 295.221 245.509 294.888 C 245.174 294.557 244.63 294.557 244.295 294.888 L 239.998 299.149 L 235.705 294.888 Z" stroke-linecap="round" />
</g>
<g transform="matrix(3.18 0 0 3.18 320.85 806.85)"  >
<path style="stroke: none; stroke-width: 1; stroke-dasharray: none; stroke-linecap: butt; stroke-dashoffset: 0; stroke-linejoin: miter; stroke-miterlimit: 4; fill: rgb(44,110,242); fill-rule: evenodd; opacity: 1;" vector-effect="non-scaling-stroke"  transform=" translate(-101, -344)" d="M 104.12 342.553 C 105.578 342.553 106.76 343.741 106.76 345.206 C 106.76 346.67 105.578 347.858 104.12 347.858 L 100.719 347.858 L 101.819 348.964 C 101.982 349.155 101.971 349.441 101.793 349.619 C 101.616 349.797 101.332 349.808 101.142 349.644 L 99.2218 347.715 C 99.0361 347.527 99.0361 347.224 99.2218 347.035 L 101.142 345.107 C 101.332 344.943 101.616 344.954 101.793 345.132 C 101.971 345.31 101.982 345.595 101.819 345.787 L 101.818 345.787 L 100.719 346.893 L 104.12 346.893 C 105.048 346.893 105.8 346.138 105.8 345.205 C 105.8 344.273 105.048 343.518 104.12 343.518 L 103.4 343.518 C 103.135 343.518 102.92 343.302 102.92 343.036 C 102.92 342.769 103.135 342.553 103.4 342.553 L 104.12 342.553 Z M 100.207 338.381 C 100.384 338.203 100.668 338.192 100.859 338.356 L 102.779 340.285 C 102.964 340.473 102.964 340.776 102.779 340.965 L 100.859 342.893 C 100.671 343.08 100.369 343.08 100.182 342.893 C 99.9962 342.705 99.9962 342.402 100.182 342.213 L 100.183 342.213 L 101.282 341.107 L 97.8802 341.107 C 96.9521 341.107 96.2002 341.862 96.2002 342.794 C 96.2002 343.727 96.9521 344.482 97.8802 344.482 L 98.6002 344.482 C 98.8655 344.482 99.0802 344.698 99.0802 344.964 C 99.0802 345.231 98.8656 345.447 98.6002 345.447 L 97.8802 345.447 C 96.4224 345.447 95.2402 344.259 95.2402 342.794 C 95.2402 341.33 96.4224 340.142 97.8802 340.142 L 101.282 340.142 L 100.182 339.036 C 100.019 338.845 100.03 338.559 100.207 338.381 Z" stroke-linecap="round" />
</g>
<g transform="matrix(3.18 0 0 3.18 762.38 806.58)"  >
<path style="stroke: none; stroke-width: 1; stroke-dasharray: none; stroke-linecap: butt; stroke-dashoffset: 0; stroke-linejoin: miter; stroke-miterlimit: 4; fill: rgb(65,78,129); fill-rule: evenodd; opacity: 1;" vector-effect="non-scaling-stroke"  transform=" translate(-240, -343.92)" d="M 235.705 340.888 C 235.37 340.557 234.826 340.557 234.491 340.888 C 234.156 341.221 234.156 341.76 234.491 342.092 L 239.393 346.951 C 239.728 347.283 240.272 347.283 240.607 346.951 L 245.509 342.092 C 245.844 341.76 245.844 341.221 245.509 340.888 C 245.174 340.557 244.63 340.557 244.295 340.888 L 239.998 345.149 L 235.705 340.888 Z" stroke-linecap="round" />
</g>
<g transform="matrix(3.18 0 0 3.18 329.41 953.52)"  >
<path style="stroke: none; stroke-width: 1; stroke-dasharray: none; stroke-linecap: butt; stroke-dashoffset: 0; stroke-linejoin: miter; stroke-miterlimit: 4; fill: rgb(44,110,242); fill-rule: nonzero; opacity: 1;" vector-effect="non-scaling-stroke"  transform=" translate(-103.7, -390.18)" d="M 104.082 389.798 C 104.591 390.307 103.828 391.071 103.319 390.562 C 102.81 390.053 103.573 389.289 104.082 389.798 Z" stroke-linecap="round" />
</g>
<g transform="matrix(3.18 0 0 3.18 320.84 952.96)"  >
<path style="stroke: none; stroke-width: 1; stroke-dasharray: none; stroke-linecap: butt; stroke-dashoffset: 0; stroke-linejoin: miter; stroke-miterlimit: 4; fill: rgb(44,110,242); fill-rule: nonzero; opacity: 1;" vector-effect="non-scaling-stroke"  transform=" translate(-101, -390)" d="M 104.6 384.6 L 97.3999 384.6 C 96.3066 384.6 95.4199 385.487 95.4199 386.58 L 95.4199 393.42 C 95.4199 394.513 96.3066 395.4 97.3999 395.4 L 104.6 395.4 C 105.693 395.4 106.58 394.513 106.58 393.42 L 106.58 386.58 C 106.58 385.487 105.693 384.6 104.6 384.6 Z M 99.3799 391.08 L 96.4999 391.08 L 96.4999 388.92 L 99.3799 388.92 L 99.3799 391.08 Z M 97.3999 385.68 L 99.3799 385.68 L 99.3799 387.84 L 96.4999 387.84 L 96.4999 386.58 C 96.4999 386.083 96.9028 385.68 97.3999 385.68 Z M 96.4999 393.42 L 96.4999 392.16 L 99.3799 392.16 L 99.3799 394.32 L 97.3999 394.32 C 96.9028 394.32 96.4999 393.917 96.4999 393.42 Z M 105.5 393.42 C 105.5 393.658 105.405 393.888 105.236 394.056 C 105.068 394.225 104.838 394.32 104.6 394.32 L 100.46 394.32 L 100.46 385.68 L 104.6 385.68 C 104.838 385.68 105.068 385.775 105.236 385.944 C 105.405 386.113 105.5 386.342 105.5 386.58 L 105.5 393.42 Z" stroke-linecap="round" />
</g>
<g transform="matrix(3.18 0 0 3.18 762.38 952.7)"  >
<path style="stroke: none; stroke-width: 1; stroke-dasharray: none; stroke-linecap: butt; stroke-dashoffset: 0; stroke-linejoin: miter; stroke-miterlimit: 4; fill: rgb(65,78,129); fill-rule: evenodd; opacity: 1;" vector-effect="non-scaling-stroke"  transform=" translate(-240, -389.92)" d="M 235.705 386.888 C 235.37 386.557 234.826 386.557 234.491 386.888 C 234.156 387.221 234.156 387.76 234.491 388.092 L 239.393 392.951 C 239.728 393.283 240.272 393.283 240.607 392.951 L 245.509 388.092 C 245.844 387.76 245.844 387.221 245.509 386.888 C 245.174 386.557 244.63 386.557 244.295 386.888 L 239.998 391.149 L 235.705 386.888 Z" stroke-linecap="round" />
</g>
<g transform="matrix(0.93 0 0 0.8 642.88 213.63)" style="" id="0b879a67-9ffa-47cb-bd18-994976193fad"  >
		<text xml:space="preserve" font-family="Raleway" font-size="105" font-style="normal" font-weight="900" style="stroke: none; stroke-width: 1; stroke-dasharray: none; stroke-linecap: butt; stroke-dashoffset: 0; stroke-linejoin: miter; stroke-miterlimit: 4; fill: rgb(22,20,20); fill-rule: nonzero; opacity: 1; white-space: pre;" ><tspan x="-209.32" y="32.98" >Flaro</tspan><tspan x="58.12" y="32.98" style="fill: rgb(255,0,0); ">.</tspan><tspan x="84.79" y="32.98" >co</tspan></text>
</g>
<g transform="matrix(1 0 0 1 348.28 169.35)"  >
<g style="" vector-effect="non-scaling-stroke"   >
		<g transform="matrix(1 0 0 1 -0.47 -0.47)"  >
<path style="stroke: none; stroke-width: 1; stroke-dasharray: none; stroke-linecap: butt; stroke-dashoffset: 0; stroke-linejoin: miter; stroke-miterlimit: 4; fill: rgb(255,1,1); fill-rule: nonzero; opacity: 1;" vector-effect="non-scaling-stroke"  transform=" translate(-81.53, -81.53)" d="M 1 152 C 1 105.312439 1 58.624877999999995 1.0005 11.105417999999986 C 2.936162 5.675155 5.956162 2.246495 11 1 C 57.687561 1 104.375122 1 151.889343 1.0005 C 157.809799 2.992155 161.142868 6.487439999999999 162.050629 12.466171000000001 C 161.98295599999997 26.888712 161.958633 40.846363000000004 161.97616599999998 54.803967 C 162.01646399999998 86.869843 162.07716399999998 118.935707 162.02088899999998 151.350418 C 160.763489 157.777405 156.74693299999998 160.85497999999998 150.53906199999997 162.05592299999998 C 140.43714899999998 161.97993499999998 130.79949999999997 161.95860299999998 121.16188799999998 161.97004699999997 C 84.77450599999997 162.01325999999997 48.38714199999998 162.06710799999996 11.657615999999976 162.00230399999995 C 5.859889 160.696121 2.439136 157.381744 1 152 M 97.761406 60.874317 C 89.77046999999999 56.484061999999994 81.77953299999999 52.093810999999995 72.68714899999999 47.098419 C 90.714165 47.098419 107.35337099999998 47.237808 123.98589299999999 46.966724 C 126.89430999999999 46.919319 130.743347 45.949996999999996 132.403214 43.950077 C 134.163635 41.828987 134.814102 37.754646 134.18705699999998 34.923676 C 133.22376999999997 30.57461 129.32472199999998 29.055813 124.87152899999998 29.064421 C 100.57563799999998 29.111383 76.27960999999999 29.084509 51.983626999999984 29.084426999999998 C 47.98977999999998 29.084414 43.99559799999999 29.060426999999997 40.00217399999998 29.103422 C 35.673774999999985 29.150024 32.59868199999998 31.316336 31.293717999999984 35.320434999999996 C 29.906884999999985 39.575745 31.363767999999983 43.175746999999994 35.09768299999998 45.736622 C 36.32896799999998 46.581092999999996 37.57137299999998 47.435482 38.897075999999984 48.112198 C 55.023109 56.34388 71.165192 64.544121 87.304253 72.750275 C 90.854927 74.555672 94.395973 74.9543 97.413559 71.87827300000001 C 100.49489600000001 68.737267 100.74990100000001 65.15841700000001 97.76140600000001 60.874317000000005 M 73.075134 75.755058 C 71.48008700000001 74.366455 70.072327 72.632576 68.257912 71.64838400000001 C 59.937202000000006 67.13496400000001 51.536655 62.764587000000006 43.098789000000004 58.47256900000001 C 35.832909 54.776695000000004 28.908451000000003 58.775543000000006 28.853767000000005 66.87693800000001 C 28.719004000000005 86.84251400000001 28.811962000000005 106.80963100000001 28.814350000000005 126.776131 C 28.814806000000004 130.57925400000002 30.108046000000005 134.103012 33.818371000000006 135.134644 C 36.58420900000001 135.90368700000002 40.69430200000001 136.08831800000002 42.615978000000005 134.548813 C 44.928959000000006 132.695831 46.63931300000001 128.773544 46.731365000000004 125.69098699999999 C 47.153347000000004 111.560616 46.91235700000001 97.41062199999999 46.929115 83.267693 C 46.930767 81.875633 47.066849000000005 80.48374199999999 47.170547000000006 78.524734 C 52.29895400000001 81.207619 56.653347000000004 84.06665799999999 61.421902 85.758026 C 64.195587 86.741821 68.062584 86.780922 70.666336 85.576981 C 74.091988 83.993019 74.807953 80.22274800000001 73.075134 75.755058 M 135.103195 102.355827 C 126.476822 95.72300700000001 116.911613 95.10594900000001 108.868713 100.66342900000001 C 101.251869 105.92651400000001 97.930626 115.58664700000001 100.692978 124.443245 C 103.203934 132.493835 110.443733 138.455124 118.45811499999999 139.071182 C 127.99363699999999 139.804169 135.893707 135.583679 139.886765 127.62321499999999 C 144.02110299999998 119.381104 142.50293 110.54232799999998 135.103195 102.35582699999999 Z" stroke-linecap="round" />
</g>
		<g transform="matrix(1 0 0 1 80.49 -0.5)"  >
<path style="stroke: none; stroke-width: 1; stroke-dasharray: none; stroke-linecap: butt; stroke-dashoffset: 0; stroke-linejoin: miter; stroke-miterlimit: 4; fill: rgb(255,241,241); fill-rule: nonzero; opacity: 1;" vector-effect="non-scaling-stroke"  transform=" translate(-162.49, -81.5)" d="M 162.129578 151.001572 C 162.077164 118.93570700000001 162.016464 86.869843 161.976166 54.803967000000014 C 161.95863300000002 40.84636300000001 161.982956 26.888712000000016 162.272369 12.466652000000018 C 162.556503 12.002221 163 12 163 12 C 163 58.020893 163 104.041786 162.782394 150.532654 C 162.56478900000002 151.002609 162.129593 151.001572 162.129578 151.001572 Z" stroke-linecap="round" />
</g>
		<g transform="matrix(1 0 0 1 -0.5 80.48)"  >
<path style="stroke: none; stroke-width: 1; stroke-dasharray: none; stroke-linecap: butt; stroke-dashoffset: 0; stroke-linejoin: miter; stroke-miterlimit: 4; fill: rgb(255,239,239); fill-rule: nonzero; opacity: 1;" vector-effect="non-scaling-stroke"  transform=" translate(-81.5, -162.48)" d="M 11.999767 162.116974 C 48.387142 162.067108 84.774506 162.01326 121.161888 161.970047 C 130.7995 161.95860299999998 140.437149 161.97993499999998 150.538025 162.274521 C 151.001282 162.562805 151 163 151 163 C 104.97910300000001 163 58.958209999999994 163 12.46852100000001 162.779236 C 11.999727000000009 162.558472 11.99976700000001 162.116959 11.99976700000001 162.116974 Z" stroke-linecap="round" />
</g>
		<g transform="matrix(1 0 0 1 0.6 -30.39)"  >
<path style="stroke: none; stroke-width: 1; stroke-dasharray: none; stroke-linecap: butt; stroke-dashoffset: 0; stroke-linejoin: miter; stroke-miterlimit: 4; fill: rgb(255,251,251); fill-rule: nonzero; opacity: 1;" vector-effect="non-scaling-stroke"  transform=" translate(-82.6, -51.61)" d="M 97.996002 61.171738 C 100.74990100000001 65.158417 100.49489600000001 68.737267 97.413559 71.878273 C 94.39597300000001 74.95429999999999 90.854927 74.55567199999999 87.304253 72.75027499999999 C 71.165192 64.544121 55.023109 56.34388 38.897076 48.112198 C 37.571373 47.435482 36.328967999999996 46.581093 35.097682999999996 45.736622 C 31.363767999999997 43.175746999999994 29.906884999999996 39.575745 31.293718 35.320434999999996 C 32.598682 31.316335999999996 35.673775 29.150023999999995 40.002174 29.103421999999995 C 43.995597999999994 29.060426999999994 47.989779999999996 29.084413999999995 51.983627 29.084426999999994 C 76.27960999999999 29.084508999999994 100.575638 29.111382999999993 124.871529 29.064420999999996 C 129.324722 29.055812999999997 133.22377 30.574609999999996 134.18705699999998 34.92367599999999 C 134.814102 37.754645999999994 134.16363499999997 41.82898699999999 132.403214 43.95007699999999 C 130.743347 45.949996999999996 126.89430999999999 46.919318999999994 123.98589299999999 46.96672399999999 C 107.35337099999998 47.237807999999994 90.71416499999998 47.09841899999999 72.68714899999999 47.09841899999999 C 81.77953299999999 52.093810999999995 89.77046999999999 56.484061999999994 97.99600199999999 61.17173799999999 Z" stroke-linecap="round" />
</g>
		<g transform="matrix(1 0 0 1 -30.6 14.4)"  >
<path style="stroke: none; stroke-width: 1; stroke-dasharray: none; stroke-linecap: butt; stroke-dashoffset: 0; stroke-linejoin: miter; stroke-miterlimit: 4; fill: rgb(255,252,252); fill-rule: nonzero; opacity: 1;" vector-effect="non-scaling-stroke"  transform=" translate(-51.4, -96.4)" d="M 73.230286 76.111633 C 74.80795300000001 80.222748 74.091988 83.993019 70.666336 85.576981 C 68.062584 86.780922 64.195587 86.741821 61.421902 85.758026 C 56.653347000000004 84.066658 52.298954 81.207619 47.170547 78.524734 C 47.066849 80.48374199999999 46.930766999999996 81.875633 46.929114999999996 83.267693 C 46.91235699999999 97.41062199999999 47.153347 111.560616 46.731365 125.69098699999999 C 46.639312999999994 128.773544 44.928959 132.695831 42.615978 134.548813 C 40.694302 136.088318 36.584209 135.903687 33.818371 135.134644 C 30.108045999999998 134.103012 28.814805999999997 130.57925400000002 28.814349999999997 126.776131 C 28.811961999999998 106.80963100000001 28.719003999999998 86.84251400000001 28.853766999999998 66.87693800000001 C 28.908451 58.77554300000001 35.832909 54.77669500000001 43.098789 58.47256900000001 C 51.536654999999996 62.764587000000006 59.937202 67.13496400000001 68.257912 71.64838400000001 C 70.072327 72.632576 71.480087 74.366455 73.230286 76.11163300000001 Z" stroke-linecap="round" />
</g>
		<g transform="matrix(1 0 0 1 38.94 36.04)"  >
<path style="stroke: none; stroke-width: 1; stroke-dasharray: none; stroke-linecap: butt; stroke-dashoffset: 0; stroke-linejoin: miter; stroke-miterlimit: 4; fill: rgb(255,252,252); fill-rule: nonzero; opacity: 1;" vector-effect="non-scaling-stroke"  transform=" translate(-120.94, -118.04)" d="M 135.367905 102.605629 C 142.50293000000002 110.542328 144.021103 119.381104 139.886765 127.62321499999999 C 135.893707 135.583679 127.99363699999999 139.804169 118.45811499999999 139.071182 C 110.443733 138.45512399999998 103.20393399999999 132.493835 100.692978 124.44324499999999 C 97.93062599999999 115.58664699999999 101.251869 105.926514 108.868713 100.663429 C 116.911613 95.105949 126.476822 95.723007 135.367905 102.605629 Z" stroke-linecap="round" />
</g>
</g>
</g>
<g transform="matrix(1 0 0 1 401.51 813.7)" style="" id="84b1936c-c218-4ba9-b30d-7c15bf116095"  >
		<text xml:space="preserve" font-family="Lato" font-size="40" font-style="normal" font-weight="400" style="stroke: none; stroke-width: 1; stroke-dasharray: none; stroke-linecap: butt; stroke-dashoffset: 0; stroke-linejoin: miter; stroke-miterlimit: 4; fill: rgb(0,0,0); fill-rule: nonzero; opacity: 1; white-space: pre;" ><tspan x="-34.08" y="12.57" >Call</tspan></text>
</g>
<g transform="matrix(1 0 0 1 413.11 660.74)" style=""  >
		<text xml:space="preserve" font-family="Lato" font-size="40" font-style="normal" font-weight="400" style="stroke: none; stroke-width: 1; stroke-dasharray: none; stroke-linecap: butt; stroke-dashoffset: 0; stroke-linejoin: miter; stroke-miterlimit: 4; fill: rgb(0,0,0); fill-rule: nonzero; opacity: 1; white-space: pre;" ><tspan x="-53.14" y="12.57" >Home</tspan></text>
</g>
<g transform="matrix(1 0 0 1 409.91 959.5)" style=""  >
		<text xml:space="preserve" font-family="Lato" font-size="40" font-style="normal" font-weight="400" style="stroke: none; stroke-width: 1; stroke-dasharray: none; stroke-linecap: butt; stroke-dashoffset: 0; stroke-linejoin: miter; stroke-miterlimit: 4; fill: rgb(0,0,0); fill-rule: nonzero; opacity: 1; white-space: pre;" ><tspan x="-45.74" y="12.57" >Tools</tspan></text>
</g>
</svg>